<?xml version="1.0" standalone="no"?>
<!DOCTYPE svg PUBLIC "-//W3C//DTD SVG 20010904//EN"
 "http://www.w3.org/TR/2001/REC-SVG-20010904/DTD/svg10.dtd">
<svg version="1.0" xmlns="http://www.w3.org/2000/svg"
 width="1024.000000pt" height="1024.000000pt" viewBox="0 0 1024.000000 1024.000000"
 preserveAspectRatio="xMidYMid meet">

<g transform="translate(0.000000,1024.000000) scale(0.100000,-0.100000)"
fill="#000000" stroke="none">
<path d="M7668 7123 c7 -3 16 -2 19 1 4 3 -2 6 -13 5 -11 0 -14 -3 -6 -6z"/>
<path d="M7758 7103 c7 -3 16 -2 19 1 4 3 -2 6 -13 5 -11 0 -14 -3 -6 -6z"/>
<path d="M7148 7093 c6 -2 18 -2 25 0 6 3 1 5 -13 5 -14 0 -19 -2 -12 -5z"/>
<path d="M7073 7083 c9 -2 25 -2 35 0 9 3 1 5 -18 5 -19 0 -27 -2 -17 -5z"/>
<path d="M7018 7073 c6 -2 18 -2 25 0 6 3 1 5 -13 5 -14 0 -19 -2 -12 -5z"/>
<path d="M7529 7067 c5 -5 24 -7 42 -5 33 3 33 4 -8 8 -23 3 -39 2 -34 -3z"/>
<path d="M7868 7073 c7 -3 16 -2 19 1 4 3 -2 6 -13 5 -11 0 -14 -3 -6 -6z"/>
<path d="M7908 7063 c7 -3 16 -2 19 1 4 3 -2 6 -13 5 -11 0 -14 -3 -6 -6z"/>
<path d="M6918 7053 c6 -2 18 -2 25 0 6 3 1 5 -13 5 -14 0 -19 -2 -12 -5z"/>
<path d="M7605 7050 c-4 -6 -97 -10 -243 -9 -248 1 -302 -2 -302 -13 0 -3 -33
-11 -72 -18 -186 -29 -370 -111 -608 -270 -257 -171 -333 -207 -510 -239 -137
-25 -188 -27 -196 -6 -6 15 -44 21 -44 7 0 -8 -75 -6 -89 3 -5 3 -30 9 -55 14
-36 7 -46 6 -46 -5 0 -15 1 -15 -82 12 -31 9 -55 22 -54 28 2 6 1 8 -1 4 -8
-14 -60 -8 -73 7 -10 12 -9 15 5 15 18 0 13 14 -6 16 -5 1 -10 2 -11 4 -2 1
-10 3 -19 5 -29 5 -93 39 -82 42 6 2 59 -14 118 -37 59 -22 113 -40 120 -40 7
0 12 -7 11 -16 0 -9 5 -19 13 -22 9 -3 11 0 6 8 -6 10 -1 11 21 6 16 -4 60 -9
97 -13 40 -3 63 -9 56 -14 -7 -4 5 -6 27 -4 21 3 77 7 124 9 164 10 139 21
-48 21 -166 0 -195 3 -262 23 -124 38 -319 112 -417 158 -51 24 -136 64 -190
89 -182 86 -401 133 -568 122 -95 -7 -251 -51 -311 -88 -41 -25 -55 -24 -24 2
l25 21 -25 -15 c-14 -8 -24 -20 -23 -25 2 -10 -59 -62 -73 -62 -5 0 7 14 26
31 34 30 34 30 4 10 -18 -11 -47 -38 -65 -58 -32 -37 -32 -38 -11 -41 13 -2
37 5 55 15 18 10 58 27 89 38 39 13 54 22 45 28 -7 5 2 6 23 2 23 -4 30 -3 22
3 -20 13 29 24 76 17 26 -4 31 -3 17 4 -37 16 131 25 242 13 141 -16 312 -74
473 -162 407 -223 723 -297 1019 -241 122 24 233 60 297 97 43 25 70 31 58 13
-4 -8 0 -8 15 0 24 13 28 23 6 15 -8 -4 -15 -4 -15 -2 0 3 34 22 75 42 42 21
73 41 70 47 -4 5 2 6 11 2 11 -4 15 -3 10 5 -3 6 -1 14 5 18 8 4 9 3 5 -4 -11
-19 0 -14 42 16 22 15 61 42 87 61 71 51 303 166 392 194 193 63 252 71 478
71 226 -1 237 -3 650 -88 97 -20 204 -36 250 -37 70 -2 74 -3 35 -9 l-45 -7
40 -1 c22 -1 53 5 69 11 l30 13 -24 22 c-13 12 -29 22 -34 21 -6 0 -1 -7 12
-16 12 -8 22 -19 22 -24 0 -11 -27 -12 -32 -1 -1 4 -64 22 -138 41 -124 31
-319 83 -364 97 -16 5 -17 4 -5 -9 8 -8 19 -12 24 -9 6 2 5 -1 -1 -7 -9 -10
-17 -10 -32 -2 -10 6 -22 7 -26 4 -3 -3 -6 -2 -6 4 0 6 -18 13 -40 16 -22 3
-47 12 -55 21 -18 18 -60 21 -70 6z m32 -26 c-3 -3 -12 -4 -19 -1 -8 3 -5 6 6
6 11 1 17 -2 13 -5z m298 -44 c13 -5 14 -9 5 -9 -8 0 -24 4 -35 9 -13 5 -14 9
-5 9 8 0 24 -4 35 -9z m142 -46 c-3 -3 -12 -4 -19 -1 -8 3 -5 6 6 6 11 1 17
-2 13 -5z m83 -13 c0 -5 -9 -7 -20 -4 -11 3 -20 7 -20 9 0 2 9 4 20 4 11 0 20
-4 20 -9z m-4380 -176 c-7 -8 -17 -15 -23 -15 -6 0 -2 8 9 19 22 21 33 19 14
-4z m1470 -202 c135 -42 198 -57 275 -63 l100 -9 -105 4 c-79 3 -130 11 -205
33 -124 37 -238 77 -262 92 -16 11 -16 11 2 4 11 -4 99 -31 195 -61z m265 -43
c4 -7 -3 -8 -22 -4 -38 9 -42 14 -10 14 14 0 29 -5 32 -10z"/>
<path d="M6830 7034 c-66 -22 -93 -34 -88 -39 2 -3 40 8 84 25 81 30 84 40 4
14z"/>
<path d="M8030 7025 c19 -7 42 -13 50 -13 8 0 -1 6 -20 13 -19 7 -42 13 -50
13 -8 0 1 -6 20 -13z"/>
<path d="M8110 7000 c8 -5 22 -9 30 -9 10 0 8 3 -5 9 -27 12 -43 12 -25 0z"/>
<path d="M4238 6983 c12 -2 32 -2 45 0 12 2 2 4 -23 4 -25 0 -35 -2 -22 -4z"/>
<path d="M4398 6983 c6 -2 18 -2 25 0 6 3 1 5 -13 5 -14 0 -19 -2 -12 -5z"/>
<path d="M6605 6937 c-55 -29 -165 -96 -245 -148 -80 -53 -164 -107 -187 -119
-24 -13 -41 -26 -38 -28 6 -6 192 96 238 130 20 15 55 41 76 58 22 16 88 55
148 86 59 31 112 60 118 65 21 20 -15 6 -110 -44z"/>
<path d="M7373 6983 c9 -2 23 -2 30 0 6 3 -1 5 -18 5 -16 0 -22 -2 -12 -5z"/>
<path d="M4178 6973 c6 -2 18 -2 25 0 6 3 1 5 -13 5 -14 0 -19 -2 -12 -5z"/>
<path d="M4498 6973 c6 -2 18 -2 25 0 6 3 1 5 -13 5 -14 0 -19 -2 -12 -5z"/>
<path d="M8190 6970 c8 -5 22 -9 30 -9 10 0 8 3 -5 9 -27 12 -43 12 -25 0z"/>
<path d="M4138 6963 c7 -3 16 -2 19 1 4 3 -2 6 -13 5 -11 0 -14 -3 -6 -6z"/>
<path d="M4558 6963 c7 -3 16 -2 19 1 4 3 -2 6 -13 5 -11 0 -14 -3 -6 -6z"/>
<path d="M4016 6925 c-44 -19 -84 -40 -90 -46 -7 -7 -1 -6 14 2 14 7 61 27
105 45 44 18 73 33 65 33 -8 0 -51 -16 -94 -34z"/>
<path d="M7668 6953 c7 -3 16 -2 19 1 4 3 -2 6 -13 5 -11 0 -14 -3 -6 -6z"/>
<path d="M8260 6945 c14 -8 30 -14 35 -14 6 0 -1 6 -15 14 -14 8 -29 14 -35
14 -5 0 1 -6 15 -14z"/>
<path d="M7718 6943 c6 -2 18 -2 25 0 6 3 1 5 -13 5 -14 0 -19 -2 -12 -5z"/>
<path d="M7778 6933 c7 -3 16 -2 19 1 4 3 -2 6 -13 5 -11 0 -14 -3 -6 -6z"/>
<path d="M4790 6890 c8 -5 20 -10 25 -10 6 0 3 5 -5 10 -8 5 -19 10 -25 10 -5
0 -3 -5 5 -10z"/>
<path d="M8058 6873 c7 -3 16 -2 19 1 4 3 -2 6 -13 5 -11 0 -14 -3 -6 -6z"/>
<path d="M4900 6850 c8 -5 20 -10 25 -10 6 0 3 5 -5 10 -8 5 -19 10 -25 10 -5
0 -3 -5 5 -10z"/>
<path d="M4940 6836 c0 -2 7 -7 16 -10 8 -3 12 -2 9 4 -6 10 -25 14 -25 6z"/>
<path d="M4178 6823 c18 -2 45 -2 60 0 15 2 0 4 -33 4 -33 0 -45 -2 -27 -4z"/>
<path d="M4293 6813 c9 -2 25 -2 35 0 9 3 1 5 -18 5 -19 0 -27 -2 -17 -5z"/>
<path d="M4008 6803 c7 -3 16 -2 19 1 4 3 -2 6 -13 5 -11 0 -14 -3 -6 -6z"/>
<path d="M4368 6803 c6 -2 18 -2 25 0 6 3 1 5 -13 5 -14 0 -19 -2 -12 -5z"/>
<path d="M4418 6793 c7 -3 16 -2 19 1 4 3 -2 6 -13 5 -11 0 -14 -3 -6 -6z"/>
<path d="M4465 6780 c11 -5 27 -9 35 -9 9 0 8 4 -5 9 -11 5 -27 9 -35 9 -9 0
-8 -4 5 -9z"/>
<path d="M4580 6740 c8 -5 20 -10 25 -10 6 0 3 5 -5 10 -8 5 -19 10 -25 10 -5
0 -3 -5 5 -10z"/>
<path d="M4621 6726 c10 -9 189 -96 189 -91 0 5 -176 95 -186 95 -4 0 -5 -2
-3 -4z"/>
<path d="M4068 6703 c6 -2 18 -2 25 0 6 3 1 5 -13 5 -14 0 -19 -2 -12 -5z"/>
<path d="M4258 6703 c7 -3 16 -2 19 1 4 3 -2 6 -13 5 -11 0 -14 -3 -6 -6z"/>
<path d="M3995 6693 c-38 -8 -86 -25 -83 -28 2 -2 35 4 73 15 60 16 68 26 10
13z"/>
<path d="M3812 6619 c-40 -22 -70 -44 -67 -49 3 -6 0 -7 -8 -4 -8 3 -20 -3
-28 -12 -12 -15 -12 -17 0 -9 10 5 12 4 7 -4 -4 -6 -11 -9 -16 -6 -10 6 -50
-42 -50 -61 0 -18 -11 -20 114 21 60 19 127 36 150 36 l41 2 -40 8 c-40 8 -4
7 160 -5 49 -4 52 -3 20 3 -38 8 -38 8 -8 10 43 2 165 -23 243 -49 69 -23 269
-118 360 -171 91 -53 322 -166 374 -183 138 -47 219 -60 366 -60 129 0 156 3
239 28 179 52 330 146 528 328 118 109 129 123 110 134 -7 4 -9 3 -4 -1 8 -9
-50 -75 -67 -75 -5 0 3 14 20 32 16 18 -7 1 -51 -37 -108 -92 -110 -95 -102
-95 4 0 25 16 47 36 22 20 43 34 46 32 7 -8 -81 -83 -147 -126 -32 -20 -66
-43 -76 -50 -17 -12 -17 -13 0 -8 11 4 16 2 12 -5 -4 -5 -12 -8 -18 -6 -7 2
-34 -8 -62 -23 -56 -30 -113 -51 -153 -55 -15 -1 -47 -6 -72 -10 -77 -13 -37
5 46 20 43 9 108 30 144 47 70 33 204 120 216 139 9 15 2 11 -95 -54 -205
-137 -437 -169 -721 -100 -76 19 -170 59 -405 173 -192 93 -440 194 -530 216
-33 8 -121 17 -195 21 -116 4 -147 2 -217 -15 -45 -12 -101 -31 -125 -43 -63
-32 -38 -11 40 33 37 21 63 38 57 38 -5 0 -43 -18 -83 -41z m45 -85 c-3 -3
-12 -4 -19 -1 -8 3 -5 6 6 6 11 1 17 -2 13 -5z m-120 -30 c-3 -3 -12 -4 -19
-1 -8 3 -5 6 6 6 11 1 17 -2 13 -5z m2483 -24 c0 -5 -5 -10 -11 -10 -5 0 -7 5
-4 10 3 6 8 10 11 10 2 0 4 -4 4 -10z m-1577 -55 c78 -37 247 -135 234 -135
-11 0 -128 59 -157 80 -14 10 -57 34 -95 54 -90 46 -76 47 18 1z m142 -43 c-3
-3 -11 0 -18 7 -9 10 -8 11 6 5 10 -3 15 -9 12 -12z m245 -72 c13 -9 13 -10 0
-10 -8 0 -22 5 -30 10 -13 9 -13 10 0 10 8 0 22 -5 30 -10z m-44 -65 c10 -8
14 -15 8 -15 -5 0 -19 7 -30 15 -10 8 -14 15 -8 15 5 0 19 -7 30 -15z m169
-23 c-6 -8 -32 11 -32 23 0 12 4 11 17 -3 10 -9 16 -18 15 -20z m103 -1 c43
-11 103 -22 134 -26 59 -7 80 -18 53 -29 -8 -3 -15 -2 -15 3 0 4 -21 9 -47 10
-55 3 -98 8 -98 10 0 1 -14 4 -32 5 -17 2 -44 13 -59 25 -33 26 -31 26 64 2z
m-131 -14 c6 -4 46 -16 90 -26 43 -11 69 -20 58 -20 -21 -1 -193 44 -202 53
-8 7 41 1 54 -7z m497 -28 c-4 -7 -23 -9 -48 -6 -22 3 -50 2 -61 -4 -16 -7
-14 -9 13 -6 17 2 32 0 32 -5 0 -4 -17 -8 -39 -8 -21 0 -54 -2 -72 -5 -32 -5
-31 -4 6 8 22 7 36 16 30 18 -6 4 -5 5 1 3 6 -1 17 2 25 7 21 13 122 12 113
-2z m-287 -25 c-3 -3 -12 -4 -19 -1 -8 3 -5 6 6 6 11 1 17 -2 13 -5z"/>
<path d="M6354 6598 l-29 -33 33 29 c30 28 37 36 29 36 -2 0 -16 -15 -33 -32z"/>
<path d="M6046 6608 c-11 -6 -35 -15 -55 -20 -20 -5 -58 -15 -86 -23 l-50 -14
45 5 c61 7 152 35 170 51 17 16 2 17 -24 1z"/>
<path d="M4881 6596 c10 -9 89 -46 89 -41 0 5 -75 45 -86 45 -4 0 -5 -2 -3 -4z"/>
<path d="M5260 6580 c0 -5 5 -10 11 -10 5 0 7 5 4 10 -3 6 -8 10 -11 10 -2 0
-4 -4 -4 -10z"/>
<path d="M7890 6586 c0 -2 8 -10 18 -17 15 -13 16 -12 3 4 -13 16 -21 21 -21
13z"/>
<path d="M7770 6553 c-26 -10 -64 -43 -49 -43 8 0 23 7 33 15 21 16 64 20 82
7 6 -4 14 -25 17 -47 5 -28 4 -34 -3 -20 -7 18 -9 18 -9 2 -1 -10 -10 -43 -22
-75 -11 -31 -22 -65 -24 -76 -6 -27 -90 -159 -166 -262 -72 -96 -414 -438
-430 -429 -9 6 -64 -94 -55 -102 3 -3 11 10 19 28 8 19 40 56 73 84 32 27 72
61 88 75 52 46 238 234 263 267 14 18 30 30 37 26 6 -3 8 -3 4 2 -9 10 10 47
21 40 5 -2 15 3 22 12 10 12 10 14 2 9 -22 -13 -15 2 51 99 36 52 68 104 71
116 4 11 9 18 12 16 2 -3 -3 -20 -12 -39 -10 -18 -13 -28 -7 -23 5 6 31 51 57
100 43 83 46 95 43 148 -3 36 -10 62 -19 68 -15 10 -75 11 -99 2z"/>
<path d="M4990 6540 c8 -5 20 -10 25 -10 6 0 3 5 -5 10 -8 5 -19 10 -25 10 -5
0 -3 -5 5 -10z"/>
<path d="M7455 6488 l-60 -63 63 60 c58 55 67 65 59 65 -1 0 -29 -28 -62 -62z"/>
<path d="M7933 6500 c0 -25 2 -35 4 -22 2 12 2 32 0 45 -2 12 -4 2 -4 -23z"/>
<path d="M4225 6506 c50 -13 92 -22 93 -21 6 6 -99 35 -143 41 -22 2 1 -6 50
-20z"/>
<path d="M5030 6525 c0 -8 73 -36 78 -30 3 3 3 5 0 5 -3 0 -22 7 -42 15 -20 8
-36 13 -36 10z"/>
<path d="M6080 6495 c-17 -10 -20 -14 -9 -15 9 0 22 7 29 15 15 18 12 18 -20
0z"/>
<path d="M1543 6465 c-50 -13 -100 -29 -110 -35 -17 -11 -16 -11 2 -5 11 4 56
13 100 21 44 8 87 18 95 21 8 4 34 5 56 4 23 -1 45 2 49 8 11 19 -93 11 -192
-14z"/>
<path d="M8953 6483 c9 -2 25 -2 35 0 9 3 1 5 -18 5 -19 0 -27 -2 -17 -5z"/>
<path d="M9383 6469 c-52 -26 -184 -139 -238 -204 -94 -116 -185 -252 -185
-279 0 -9 -4 -15 -9 -11 -13 7 -34 -32 -25 -47 4 -7 3 -8 -5 -4 -24 15 -210
-402 -301 -672 -47 -140 -103 -277 -123 -301 -8 -9 -37 -55 -66 -102 -57 -94
-85 -125 -116 -131 -18 -3 -20 3 -23 55 -8 149 89 471 170 563 17 19 26 38 22
45 -4 7 -3 9 4 5 18 -11 198 229 288 384 17 30 52 91 78 135 25 44 46 84 46
89 0 6 -23 -30 -51 -79 -28 -50 -57 -97 -63 -105 -7 -8 -31 -47 -54 -86 -23
-38 -96 -135 -162 -214 -66 -80 -127 -159 -135 -177 -9 -18 -18 -33 -21 -33
-3 0 -2 5 1 10 3 6 1 10 -5 10 -18 0 49 112 100 168 65 72 167 216 275 387 51
83 111 177 132 209 58 91 96 184 101 249 3 34 0 63 -6 69 -14 14 -62 1 -62
-17 0 -7 -8 -20 -18 -27 -19 -14 -37 -38 -28 -38 3 0 22 15 42 33 l37 32 -6
-50 c-13 -112 -141 -362 -307 -600 -118 -169 -134 -191 -159 -216 -14 -15 -37
-39 -49 -55 l-24 -29 16 30 c28 54 88 207 83 212 -4 4 -68 -136 -97 -212 -33
-89 -72 -165 -100 -197 -14 -16 -46 -82 -72 -146 -26 -64 -47 -109 -47 -99 -1
10 13 52 29 94 17 41 30 87 30 101 -1 24 -3 22 -16 -13 -9 -22 -23 -65 -33
-95 -30 -90 -64 -161 -72 -148 -5 7 -18 -5 -36 -33 -51 -80 -98 -138 -115
-144 -10 -4 -17 -9 -15 -13 3 -10 -81 -85 -130 -115 -23 -14 -54 -29 -70 -32
l-28 -7 30 17 c36 20 53 35 39 35 -5 0 -14 -4 -19 -9 -6 -6 -33 -13 -61 -16
l-50 -7 -42 47 c-23 26 -42 57 -42 69 1 21 1 21 15 2 8 -11 15 -23 15 -27 0
-12 76 -59 97 -59 31 0 110 38 148 71 19 17 39 28 44 25 12 -8 102 103 94 117
-3 5 -1 7 5 3 6 -3 23 10 39 31 15 21 36 45 45 55 9 9 26 34 36 55 23 45 122
346 122 371 0 9 23 69 51 132 28 63 67 156 88 207 21 50 59 128 85 174 25 45
44 84 42 86 -2 3 -17 -17 -32 -43 -15 -26 -30 -42 -32 -35 -5 14 -56 -80 -118
-216 -23 -51 -49 -103 -58 -115 l-17 -23 6 25 c4 14 45 104 93 200 47 96 88
179 90 184 3 5 0 6 -5 3 -15 -10 -157 -300 -191 -392 -61 -161 -83 -230 -113
-349 -37 -145 -79 -237 -151 -331 -73 -95 -123 -146 -184 -183 -59 -37 -82
-39 -116 -12 -14 10 -28 16 -32 13 -3 -4 -6 2 -5 13 1 10 1 48 -1 84 -3 61 -3
62 -10 25 -4 -22 -8 -31 -10 -20 -4 34 2 70 12 76 5 3 8 10 6 15 -1 5 14 10
36 11 133 7 373 222 436 389 21 58 26 114 10 114 -5 0 -10 -10 -10 -22 0 -73
-82 -221 -156 -287 -22 -19 -60 -54 -85 -78 -39 -37 -58 -47 -124 -64 -85 -21
-115 -24 -115 -10 0 5 24 12 53 16 49 6 143 42 134 51 -2 3 -24 -4 -48 -14
-49 -21 -132 -35 -123 -21 3 5 14 9 25 9 73 0 242 153 325 295 32 54 38 54 19
0 -6 -16 -3 -16 13 4 42 51 55 144 23 161 -37 19 -69 11 -115 -32 -26 -22 -44
-43 -42 -45 2 -3 -21 -32 -52 -65 -31 -33 -66 -74 -78 -91 -54 -79 -94 -145
-94 -153 0 -5 27 32 60 83 78 118 218 263 255 263 18 0 20 -38 3 -77 -40 -90
-194 -276 -257 -307 -44 -22 -91 -28 -91 -11 0 8 6 14 13 13 7 -2 11 6 9 21
-1 13 12 48 29 78 16 30 29 57 27 59 -7 6 -64 -91 -77 -132 -13 -41 -71 -114
-90 -114 -5 0 -8 -11 -5 -25 3 -18 0 -25 -11 -25 -8 0 -15 -4 -15 -10 0 -5 -7
-10 -16 -10 -8 0 -12 -4 -9 -10 3 -5 1 -10 -4 -10 -6 0 -11 15 -11 33 0 23 -3
28 -10 17 -43 -69 19 155 73 264 18 36 27 60 20 54 -29 -24 -11 11 28 52 115
125 175 187 198 202 14 10 22 18 16 18 -19 0 -128 -89 -168 -137 -119 -143
-178 -248 -212 -374 -34 -128 -121 -269 -167 -269 -19 0 -43 36 -29 44 4 3 11
19 14 36 4 17 22 65 42 107 19 42 33 78 31 80 -2 2 -19 -25 -37 -61 -18 -36
-35 -63 -37 -62 -3 3 66 159 92 209 8 15 11 27 5 27 -5 0 2 23 16 50 14 28 23
50 20 50 -2 0 -12 -15 -21 -32 -9 -18 -27 -46 -40 -61 -13 -16 -29 -49 -35
-74 -7 -28 -21 -50 -36 -60 -16 -11 -20 -18 -13 -23 9 -6 8 -15 -4 -36 -8 -16
-15 -23 -16 -16 0 6 -5 12 -12 12 -6 0 -8 -3 -5 -6 3 -4 -3 -18 -13 -32 -11
-13 -20 -31 -20 -38 0 -8 -12 -17 -26 -20 -21 -5 -25 -11 -21 -30 2 -13 0 -24
-5 -24 -19 0 -19 33 1 92 24 69 26 87 11 72 -5 -5 -21 -41 -34 -79 -14 -39
-25 -62 -25 -52 -1 24 56 191 85 249 13 26 24 57 24 68 0 12 4 19 9 16 9 -6
32 17 45 44 4 8 -4 2 -18 -15 -35 -41 -33 -27 10 54 20 38 34 75 32 81 -2 6
-39 -52 -82 -129 -133 -239 -196 -408 -182 -486 10 -49 65 -109 116 -124 36
-10 50 -10 98 5 46 15 70 31 129 91 l72 73 12 -38 c39 -123 193 -188 315 -133
76 34 274 203 274 233 0 4 5 8 10 8 6 0 10 -27 10 -60 0 -71 16 -114 57 -153
36 -33 111 -46 166 -28 44 15 180 139 197 181 7 16 16 30 20 30 4 0 10 -29 12
-64 7 -79 33 -121 96 -148 108 -48 218 14 389 220 58 70 253 357 253 373 0 37
-36 60 -63 40 -64 -51 -104 -95 -156 -174 -138 -208 -220 -307 -256 -307 -27
0 -35 17 -35 75 0 64 25 175 71 310 51 149 87 220 134 265 101 95 325 363 428
511 45 65 147 257 147 275 -1 5 -26 -40 -58 -101 -32 -60 -82 -144 -112 -185
-103 -141 -183 -239 -190 -235 -9 6 -66 -66 -62 -78 1 -5 -2 -6 -7 -3 -12 8
-73 -69 -63 -79 4 -5 2 -5 -4 -2 -6 3 -28 -9 -49 -29 -23 -20 -30 -32 -19 -28
15 4 14 1 -5 -16 -14 -12 -36 -36 -49 -53 -22 -29 -23 -30 -17 -7 12 38 87
150 100 150 14 0 192 215 277 335 70 97 91 124 98 119 12 -6 121 207 151 296
43 129 40 200 -8 200 -18 0 -66 -44 -95 -85 -16 -23 -10 -20 22 12 46 47 60
47 60 3 0 -118 -172 -450 -339 -653 -31 -37 -73 -89 -93 -114 -20 -26 -51 -60
-67 -75 -31 -29 -31 -29 -31 -6 0 13 -28 -37 -61 -109 -34 -73 -66 -133 -71
-133 -5 0 -6 10 -2 23 15 49 15 52 -1 32 -9 -11 -35 -49 -57 -85 -22 -36 -37
-56 -34 -45 12 34 -10 3 -24 -35 -28 -76 -85 -182 -116 -219 -19 -22 -34 -42
-34 -46 0 -14 -97 -142 -138 -181 -23 -23 -60 -49 -82 -59 -43 -19 -76 -14
-66 11 3 8 1 25 -5 36 -10 19 -9 19 19 -2 40 -29 58 -22 128 51 107 110 210
278 266 434 64 179 118 343 118 361 0 9 18 54 40 101 22 47 37 90 33 97 -3 6
-3 8 1 5 8 -7 140 240 133 247 -2 3 -12 -7 -21 -22 -30 -45 -28 -20 3 43 78
156 286 382 406 440 38 18 61 33 50 33 -11 -1 -39 -10 -62 -21z m-442 -522
c-10 -9 -11 -8 -5 6 3 10 9 15 12 12 3 -3 0 -11 -7 -18z m-501 -133 c-22 -44
-40 -73 -40 -67 0 17 71 156 76 150 3 -2 -13 -40 -36 -83z m-40 -92 c0 -5 -7
-17 -15 -28 -14 -18 -14 -17 -4 9 12 27 19 34 19 19z m680 -205 c0 -2 -10 -12
-22 -23 l-23 -19 19 23 c18 21 26 27 26 19z m-490 -11 c0 -2 -8 -10 -17 -17
-16 -13 -17 -12 -4 4 13 16 21 21 21 13z m-40 -49 c0 -2 -12 -14 -27 -28 l-28
-24 24 28 c23 25 31 32 31 24z m454 -21 c-3 -8 -13 -17 -22 -21 -13 -5 -13 -2
3 15 21 24 26 25 19 6z m-1029 -26 c-10 -11 -22 -20 -28 -20 -5 0 1 9 14 20
31 25 37 25 14 0z m886 -152 c-11 -18 -21 -29 -21 -25 0 13 33 67 38 62 3 -2
-5 -19 -17 -37z m-470 -14 c-11 -22 -23 -53 -27 -68 -3 -15 -9 -25 -11 -22 -8
7 28 120 40 128 18 11 18 4 -2 -38z m-835 -89 c-20 -37 -36 -62 -36 -56 0 17
61 134 66 128 3 -3 -11 -35 -30 -72z m1678 -13 c-34 -68 -223 -321 -299 -398
-82 -84 -94 -93 -137 -99 -47 -7 -68 -2 -68 16 0 6 9 7 20 4 63 -20 222 130
364 343 48 74 95 136 103 139 8 3 12 12 8 22 -5 13 -4 13 6 4 8 -8 9 -18 3
-31z m-24 24 c0 -3 -4 -8 -10 -11 -5 -3 -10 -1 -10 4 0 6 5 11 10 11 6 0 10
-2 10 -4z m-871 -70 c-6 -21 -12 -36 -14 -34 -3 2 0 21 6 42 6 21 12 36 14 34
3 -2 0 -21 -6 -42z m440 -60 c-6 -25 -15 -48 -19 -51 -4 -2 0 20 8 50 18 66
28 67 11 1z m-1268 17 c-12 -20 -14 -14 -5 12 4 9 9 14 11 11 3 -2 0 -13 -6
-23z m-341 -3 c-6 -11 -13 -20 -16 -20 -2 0 0 9 6 20 6 11 13 20 16 20 2 0 0
-9 -6 -20z m-46 -108 c-6 -4 -22 -38 -37 -77 -14 -38 -26 -65 -26 -58 -1 16
39 125 52 141 5 7 12 10 16 7 3 -3 1 -9 -5 -13z m513 -99 c-2 -21 -4 -4 -4 37
0 41 2 58 4 38 2 -21 2 -55 0 -75z m-172 -2 c-9 -27 -29 -66 -45 -86 -16 -20
-32 -45 -35 -56 -7 -20 -17 -24 -28 -12 -4 3 3 18 15 32 14 15 5 10 -23 -12
-51 -41 -91 -47 -121 -20 -10 9 -18 25 -18 35 0 18 1 18 16 4 23 -24 62 -30
91 -15 28 15 83 69 83 81 0 12 73 108 78 103 2 -2 -3 -26 -13 -54z m1132 -58
c-3 -10 -5 -2 -5 17 0 19 2 27 5 18 2 -10 2 -26 0 -35z m120 -85 c-3 -8 -6 -5
-6 6 -1 11 2 17 5 13 3 -3 4 -12 1 -19z"/>
<path d="M9533 6479 c22 -13 47 -61 47 -90 0 -12 3 -20 6 -16 21 21 -29 118
-60 117 -6 0 -3 -5 7 -11z"/>
<path d="M4421 6436 c53 -23 141 -67 195 -96 195 -106 339 -179 349 -179 6 0
-3 7 -20 16 -16 8 -115 61 -220 117 -194 103 -367 186 -388 186 -7 0 31 -20
84 -44z"/>
<path d="M5150 6470 c8 -5 20 -10 25 -10 6 0 3 5 -5 10 -8 5 -19 10 -25 10 -5
0 -3 -5 5 -10z"/>
<path d="M1751 6466 c2 -2 18 -6 34 -10 22 -5 26 -4 15 4 -14 9 -59 15 -49 6z"/>
<path d="M6009 6453 c-13 -16 -12 -17 4 -4 9 7 17 15 17 17 0 8 -8 3 -21 -13z"/>
<path d="M1821 6446 c2 -2 15 -9 29 -16 23 -12 24 -12 11 3 -7 10 -20 17 -29
17 -8 0 -13 -2 -11 -4z"/>
<path d="M5228 6443 c7 -3 16 -2 19 1 4 3 -2 6 -13 5 -11 0 -14 -3 -6 -6z"/>
<path d="M5268 6433 c7 -3 16 -2 19 1 4 3 -2 6 -13 5 -11 0 -14 -3 -6 -6z"/>
<path d="M7922 6420 c0 -14 2 -19 5 -12 2 6 2 18 0 25 -3 6 -5 1 -5 -13z"/>
<path d="M5308 6423 c7 -3 16 -2 19 1 4 3 -2 6 -13 5 -11 0 -14 -3 -6 -6z"/>
<path d="M9061 6414 c0 -11 3 -14 6 -6 3 7 2 16 -1 19 -3 4 -6 -2 -5 -13z"/>
<path d="M1380 6410 c-8 -5 -10 -10 -5 -10 6 0 17 5 25 10 8 5 11 10 5 10 -5
0 -17 -5 -25 -10z"/>
<path d="M1941 6394 c48 -52 62 -93 67 -194 6 -120 -29 -357 -65 -445 -14 -33
-49 -127 -78 -210 -29 -82 -72 -193 -95 -245 -23 -52 -64 -156 -91 -230 -52
-145 -118 -303 -119 -283 0 7 9 36 21 65 11 29 42 114 69 188 78 216 107 291
139 361 74 163 191 618 191 745 0 103 -42 240 -78 252 -7 2 -1 -13 13 -33 39
-59 48 -107 42 -240 -5 -115 -30 -234 -71 -350 -8 -22 -22 -66 -31 -99 -9 -32
-19 -56 -22 -53 -3 3 0 21 5 39 16 48 22 98 12 98 -5 0 -10 -12 -12 -27 -2
-21 -9 -29 -26 -31 -21 -3 -23 -1 -18 25 3 15 2 34 -3 42 -6 10 -12 4 -21 -23
-7 -21 -14 -36 -16 -33 -2 2 19 93 46 203 29 113 52 231 55 274 l4 75 -13 -80
c-31 -184 -174 -674 -301 -1033 -26 -73 -49 -131 -52 -129 -2 3 16 60 41 128
48 134 63 182 127 392 23 76 40 140 37 142 -2 2 -33 -87 -67 -198 -65 -207
-137 -408 -257 -717 -82 -214 -88 -264 -36 -311 23 -20 43 -29 67 -29 75 0
120 36 207 170 40 61 309 556 440 810 231 446 344 644 431 758 54 72 72 80 91
45 20 -37 20 -11 1 27 -23 45 -55 40 -105 -17 -24 -27 -47 -60 -52 -75 -6 -16
-15 -28 -20 -28 -6 0 -5 6 2 15 7 9 11 18 8 21 -3 2 -13 -7 -23 -22 -9 -15
-12 -23 -5 -19 8 5 11 3 8 -6 -3 -8 -10 -14 -15 -14 -6 0 -15 -4 -20 -9 -5 -5
-3 -6 5 -2 18 11 15 -1 -18 -60 -16 -30 -44 -79 -61 -110 -17 -30 -33 -53 -36
-50 -3 2 12 32 31 67 20 34 35 64 32 66 -2 3 -10 -6 -17 -19 -8 -12 -26 -45
-41 -73 -16 -27 -48 -88 -72 -135 -24 -47 -84 -155 -133 -240 -50 -85 -109
-191 -133 -235 -46 -86 -70 -124 -70 -112 0 5 13 34 30 65 16 31 95 191 175
355 80 164 169 337 198 385 29 48 59 103 65 122 16 45 2 29 -35 -40 -16 -30
-40 -73 -54 -95 -14 -22 -105 -197 -201 -390 -277 -551 -335 -653 -258 -459
17 42 51 133 76 203 25 69 49 137 54 151 26 69 82 270 100 357 11 54 25 123
31 153 35 167 -4 368 -80 416 l-26 17 26 -29z m290 -562 c-14 -26 -14 -35 -1
-27 6 4 -6 -27 -27 -69 -20 -41 -39 -74 -41 -72 -2 2 6 23 18 45 11 23 18 46
15 51 -6 9 36 103 43 96 2 -3 -1 -13 -7 -24z m29 8 c-6 -11 -13 -20 -16 -20
-2 0 0 9 6 20 6 11 13 20 16 20 2 0 0 -9 -6 -20z m-130 -250 c-6 -11 -13 -20
-16 -20 -2 0 0 9 6 20 6 11 13 20 16 20 2 0 0 -9 -6 -20z m-135 -259 c-21 -43
-29 -39 -8 4 9 19 18 33 21 31 2 -2 -4 -18 -13 -35z m-516 -360 c-6 -18 -13
-30 -15 -28 -2 2 1 18 7 36 6 18 13 30 15 28 2 -2 -1 -18 -7 -36z m-28 -68
c-12 -20 -14 -14 -5 12 4 9 9 14 11 11 3 -2 0 -13 -6 -23z m269 -73 c-6 -11
-13 -20 -16 -20 -2 0 0 9 6 20 6 11 13 20 16 20 2 0 0 -9 -6 -20z m-52 -88
c-47 -84 -74 -118 -37 -47 41 77 58 105 65 105 3 0 -10 -26 -28 -58z m-78 -2
c-12 -16 -24 -30 -26 -30 -3 0 4 14 16 30 12 17 24 30 26 30 3 0 -4 -13 -16
-30z"/>
<path d="M2206 5785 c-9 -26 -7 -32 5 -12 6 10 9 21 6 23 -2 3 -7 -2 -11 -11z"/>
<path d="M3270 6410 c-9 -6 -10 -10 -3 -10 6 0 15 5 18 10 8 12 4 12 -15 0z"/>
<path d="M5348 6413 c7 -3 16 -2 19 1 4 3 -2 6 -13 5 -11 0 -14 -3 -6 -6z"/>
<path d="M5060 6400 c0 -5 5 -10 11 -10 5 0 7 5 4 10 -3 6 -8 10 -11 10 -2 0
-4 -4 -4 -10z"/>
<path d="M5788 6403 c6 -2 18 -2 25 0 6 3 1 5 -13 5 -14 0 -19 -2 -12 -5z"/>
<path d="M1335 6390 c-3 -6 1 -7 9 -4 18 7 21 14 7 14 -6 0 -13 -4 -16 -10z"/>
<path d="M1466 6370 c-34 -14 -89 -43 -124 -63 -35 -20 -66 -37 -69 -37 -12 0
-201 -115 -249 -151 -74 -56 -78 -47 -9 17 65 60 208 160 287 200 26 13 48 27
48 29 0 17 -208 -107 -300 -178 -208 -161 -295 -291 -307 -458 -7 -81 6 -122
54 -180 35 -41 35 -42 5 -15 -49 46 -72 102 -72 179 0 163 115 341 323 496 31
24 57 45 57 48 0 15 -111 -77 -200 -167 -129 -128 -174 -207 -191 -327 -8 -58
-8 -89 0 -120 36 -131 219 -247 363 -231 44 5 148 45 148 57 0 4 -22 15 -50
25 -138 50 -178 217 -94 386 54 107 221 275 362 364 54 34 195 91 245 99 45 7
94 -8 107 -33 17 -32 11 -168 -11 -262 -12 -49 -19 -92 -16 -94 2 -3 12 28 22
68 19 83 36 291 23 296 -4 2 -5 9 -2 14 4 7 2 8 -4 4 -8 -5 -12 0 -12 12 0 39
-39 51 -160 49 -96 -1 -122 -5 -174 -27z m171 -26 c-3 -3 -12 -4 -19 -1 -8 3
-5 6 6 6 11 1 17 -2 13 -5z m-501 -275 c-62 -57 -113 -120 -143 -177 -19 -36
-37 -181 -29 -232 10 -64 52 -119 119 -157 31 -17 67 -34 79 -37 13 -2 0 -4
-28 -2 -69 4 -137 44 -176 104 -29 46 -30 50 -25 142 8 158 58 252 197 369 84
70 87 64 6 -10z"/>
<path d="M5463 6393 c9 -2 23 -2 30 0 6 3 -1 5 -18 5 -16 0 -22 -2 -12 -5z"/>
<path d="M5688 6393 c12 -2 32 -2 45 0 12 2 2 4 -23 4 -25 0 -35 -2 -22 -4z"/>
<path d="M8749 6352 c-89 -94 -102 -115 -25 -39 43 43 77 80 74 82 -2 3 -24
-17 -49 -43z"/>
<path d="M3219 6373 c-13 -16 -12 -17 4 -4 16 13 21 21 13 21 -2 0 -10 -8 -17
-17z"/>
<path d="M5547 6383 c18 -2 50 -2 70 0 21 2 7 4 -32 4 -38 0 -55 -2 -38 -4z"/>
<path d="M5895 6380 c-3 -6 1 -7 9 -4 18 7 21 14 7 14 -6 0 -13 -4 -16 -10z"/>
<path d="M7902 6353 c-6 -20 -10 -39 -8 -41 2 -2 9 13 16 33 7 20 10 38 8 41
-3 2 -10 -13 -16 -33z"/>
<path d="M1220 6329 c-78 -46 -135 -87 -85 -61 50 26 187 112 179 112 -5 0
-47 -23 -94 -51z"/>
<path d="M7327 6339 c-16 -21 -26 -39 -24 -39 7 0 59 71 56 75 -2 2 -17 -14
-32 -36z"/>
<path d="M2670 6367 c0 -2 15 -16 33 -33 l32 -29 -29 33 c-28 30 -36 37 -36
29z"/>
<path d="M3179 6333 c-13 -16 -12 -17 4 -4 9 7 17 15 17 17 0 8 -8 3 -21 -13z"/>
<path d="M5805 6340 c-13 -6 -15 -9 -5 -9 8 0 22 4 30 9 18 12 2 12 -25 0z"/>
<path d="M2425 6290 c-31 -31 -43 -50 -34 -50 9 0 24 9 34 20 10 11 14 20 9
20 -5 0 5 11 21 24 17 13 27 27 24 30 -3 3 -27 -17 -54 -44z m5 -14 c0 -2 -8
-10 -17 -17 -16 -13 -17 -12 -4 4 13 16 21 21 21 13z"/>
<path d="M9551 6257 c-12 -39 -24 -79 -27 -87 -5 -13 -4 -13 5 0 14 19 55 149
49 155 -2 3 -14 -28 -27 -68z"/>
<path d="M2685 6303 c15 -59 23 -136 19 -170 -17 -126 -29 -190 -55 -286 -33
-123 -86 -267 -99 -267 -4 0 -13 -13 -19 -30 -5 -16 -15 -30 -20 -30 -6 0 -11
-7 -11 -15 0 -8 -4 -15 -10 -15 -5 0 -10 4 -10 10 0 17 -37 -4 -64 -37 -16
-19 -36 -64 -47 -105 -11 -40 -24 -80 -29 -89 -5 -9 -14 -35 -20 -59 -6 -23
-14 -40 -17 -37 -2 3 21 94 52 202 31 109 54 199 52 201 -4 5 -44 -123 -118
-381 -86 -300 -116 -484 -89 -535 33 -61 100 -40 156 47 20 32 90 150 154 263
118 206 137 241 260 470 181 337 324 574 423 703 58 75 84 91 95 57 3 -8 1
-12 -3 -7 -9 8 -45 -59 -44 -83 0 -8 5 -2 11 14 l11 29 14 -24 c14 -24 14 -24
9 8 -3 18 -1 35 4 38 11 7 13 45 4 69 -9 23 -54 21 -54 -3 0 -18 -25 -36 -43
-32 -8 1 -48 -42 -77 -84 -61 -88 -112 -170 -141 -225 -19 -36 -41 -73 -49
-82 -18 -20 -127 -228 -112 -213 6 6 27 42 47 80 20 39 48 84 61 102 13 18 52
81 85 140 34 59 66 110 70 111 5 2 7 7 4 12 -3 4 2 13 9 19 11 9 16 9 22 0 5
-8 3 -9 -6 -4 -9 5 -11 4 -6 -4 4 -6 -12 -41 -37 -79 -24 -37 -70 -112 -102
-167 -32 -55 -76 -131 -98 -170 -23 -38 -67 -119 -99 -180 -33 -60 -56 -99
-52 -86 4 16 3 21 -5 16 -7 -4 -11 -14 -10 -23 4 -27 -11 -63 -23 -56 -7 4 -8
2 -4 -4 4 -7 -4 -27 -17 -44 -13 -18 -27 -41 -30 -51 -4 -10 -11 -15 -17 -12
-5 3 -7 0 -4 -9 5 -13 -21 -76 -32 -76 -2 0 0 9 6 21 7 11 9 23 7 26 -3 3 -12
-8 -21 -24 -8 -16 -22 -35 -31 -43 -9 -7 11 32 44 88 62 105 171 316 171 329
-1 13 -49 -67 -97 -162 -65 -128 -253 -416 -253 -388 0 6 29 53 64 104 76 112
85 129 284 519 85 168 172 335 194 373 21 37 57 100 79 140 23 39 55 88 70
108 16 20 29 40 29 44 0 15 -68 -83 -132 -191 -37 -61 -115 -205 -174 -320
-109 -214 -132 -257 -249 -474 -68 -127 -112 -192 -82 -120 9 19 30 73 47 120
17 47 44 119 60 160 38 102 113 351 145 485 32 131 42 263 26 324 -17 59 -21
48 -9 -19 12 -67 0 -166 -41 -330 -48 -188 -74 -265 -166 -480 -87 -204 -137
-341 -150 -413 -8 -39 -21 -58 -22 -29 -2 43 87 313 157 480 37 87 89 237 122
352 68 235 83 406 44 491 -9 19 -13 24 -11 12z m461 -190 c-14 -20 -26 -32
-26 -24 0 16 40 74 47 67 3 -2 -7 -22 -21 -43z m-859 -1015 c-3 -8 -6 -5 -6 6
-1 11 2 17 5 13 3 -3 4 -12 1 -19z m263 -28 c-6 -11 -13 -20 -16 -20 -2 0 0 9
6 20 6 11 13 20 16 20 2 0 0 -9 -6 -20z m-289 -71 c-11 -41 -20 -65 -20 -55
-1 23 30 138 35 133 2 -2 -5 -37 -15 -78z m249 1 c-6 -11 -13 -20 -16 -20 -2
0 0 9 6 20 6 11 13 20 16 20 2 0 0 -9 -6 -20z m-40 -70 c-6 -11 -13 -20 -16
-20 -2 0 0 9 6 20 6 11 13 20 16 20 2 0 0 -9 -6 -20z m-87 -150 c-19 -33 -37
-60 -40 -60 -5 0 13 33 44 83 38 60 35 42 -4 -23z"/>
<path d="M5338 6303 c7 -3 16 -2 19 1 4 3 -2 6 -13 5 -11 0 -14 -3 -6 -6z"/>
<path d="M5655 6300 c-27 -7 -27 -8 -5 -8 14 0 36 4 50 8 20 6 21 8 5 8 -11 0
-33 -4 -50 -8z"/>
<path d="M3462 6275 c0 -16 2 -22 5 -12 2 9 2 23 0 30 -3 6 -5 -1 -5 -18z"/>
<path d="M5528 6283 c18 -2 45 -2 60 0 15 2 0 4 -33 4 -33 0 -45 -2 -27 -4z"/>
<path d="M7276 6268 c-7 -13 -30 -49 -49 -80 -37 -59 -84 -148 -73 -137 10 10
145 239 141 239 -3 0 -11 -10 -19 -22z"/>
<path d="M8836 6231 c-20 -32 -36 -62 -36 -67 0 -10 17 15 54 79 39 67 24 58
-18 -12z"/>
<path d="M3512 6260 c0 -14 2 -19 5 -12 2 6 2 18 0 25 -3 6 -5 1 -5 -13z"/>
<path d="M7539 6263 c-13 -16 -12 -17 4 -4 16 13 21 21 13 21 -2 0 -10 -8 -17
-17z"/>
<path d="M7490 6237 c-51 -79 -110 -182 -110 -191 0 -6 20 24 45 67 24 42 54
91 66 108 11 16 19 32 17 34 -2 2 -10 -6 -18 -18z"/>
<path d="M3446 6174 c-7 -68 -46 -230 -99 -409 -12 -39 -79 -233 -133 -385 -4
-12 -7 -12 -13 -1 -6 10 -12 3 -20 -22 -17 -51 -50 -115 -51 -97 0 8 6 26 13
40 22 42 27 69 11 63 -8 -3 -14 -9 -14 -15 0 -5 -9 -7 -19 -3 -14 4 -21 0 -26
-14 -3 -10 -12 -25 -21 -32 -12 -10 -13 -9 -8 7 5 16 4 16 -5 4 -15 -21 -57
-133 -77 -203 -9 -32 -18 -56 -21 -54 -5 6 46 195 60 222 17 30 37 88 36 105
-1 30 -49 -88 -109 -270 -33 -102 -63 -191 -66 -199 -2 -8 -7 -12 -9 -9 -10 9
79 296 160 517 9 24 14 48 12 54 -6 19 -156 -424 -198 -582 -65 -252 -43 -366
85 -449 36 -24 51 -27 126 -27 72 0 94 4 145 28 67 31 115 72 115 97 0 25 -11
31 -28 17 -9 -7 -44 -12 -83 -12 -59 0 -70 3 -88 24 -31 36 -35 64 -23 165 13
101 58 256 157 541 120 347 184 559 220 730 24 114 34 204 13 120 -89 -365
-176 -653 -309 -1020 -51 -140 -43 -90 10 66 57 168 67 202 51 177 -14 -23
-150 -404 -150 -421 0 -8 -9 -40 -21 -73 -11 -32 -18 -71 -15 -86 3 -14 1 -49
-3 -78 -11 -72 3 -119 45 -152 37 -28 55 -29 153 -7 24 5 46 8 48 5 12 -11
-66 -39 -122 -43 -51 -4 -65 -2 -94 19 -21 14 -40 39 -48 63 -39 109 36 436
177 770 86 203 178 487 220 673 20 91 36 222 28 222 -3 0 -8 -30 -12 -66z
m-319 -956 c-3 -8 -6 -5 -6 6 -1 11 2 17 5 13 3 -3 4 -12 1 -19z m-260 -360
c-3 -7 -5 -2 -5 12 0 14 2 19 5 13 2 -7 2 -19 0 -25z m200 -80 c-3 -8 -6 -5
-6 6 -1 11 2 17 5 13 3 -3 4 -12 1 -19z"/>
<path d="M8607 6183 c-38 -53 -109 -160 -122 -183 -21 -39 19 15 88 118 77
114 96 150 34 65z"/>
<path d="M2359 6203 c-38 -46 -43 -54 -28 -48 16 7 53 54 47 61 -3 2 -11 -4
-19 -13z"/>
<path d="M5858 6174 c-38 -20 -36 -28 2 -9 17 9 30 18 30 20 0 7 -1 6 -32 -11z"/>
<path d="M7790 6137 c-13 -17 -32 -44 -41 -61 -9 -17 -21 -31 -27 -31 -15 0
-112 -115 -109 -129 1 -5 -5 -10 -13 -11 -8 0 -14 -6 -13 -13 3 -13 -119 -133
-208 -204 -145 -116 -181 -148 -232 -206 -32 -37 -65 -80 -73 -97 -8 -16 -9
-21 -2 -11 24 36 182 188 293 281 155 131 310 293 389 408 67 96 85 135 36 74z
m-87 -125 c-30 -48 -72 -97 -77 -92 -4 5 85 120 92 120 2 0 -4 -13 -15 -28z"/>
<path d="M5010 6141 c27 -20 174 -61 275 -76 74 -11 125 -12 195 -6 l95 8
-130 0 c-155 -1 -266 20 -430 78 -16 6 -17 5 -5 -4z"/>
<path d="M2541 6074 c-7 -36 -10 -68 -8 -71 3 -2 10 26 16 63 7 36 10 68 8 71
-3 2 -10 -26 -16 -63z"/>
<path d="M5754 6126 c-18 -8 -64 -22 -103 -32 -39 -9 -70 -19 -67 -21 7 -7
129 25 176 46 25 11 41 20 35 20 -5 0 -24 -6 -41 -13z"/>
<path d="M7446 6103 c-6 -14 -5 -15 5 -6 7 7 10 15 7 18 -3 3 -9 -2 -12 -12z"/>
<path d="M3261 6091 c0 -13 -5 -41 -11 -62 -5 -22 -15 -57 -20 -79 -8 -28 -15
-38 -25 -34 -8 4 -15 1 -15 -6 0 -6 4 -9 9 -6 16 10 1 -76 -25 -142 -26 -66
-29 -82 -16 -82 4 0 14 21 21 48 7 26 19 67 26 92 56 196 66 239 62 265 -3 24
-4 25 -6 6z"/>
<path d="M9047 6082 c-20 -22 -21 -32 -5 -32 6 0 8 3 5 7 -4 3 0 15 10 25 9
10 14 18 11 18 -3 0 -12 -8 -21 -18z"/>
<path d="M3228 6055 c-17 -93 -17 -99 -3 -55 9 25 14 56 13 70 -3 19 -5 16
-10 -15z"/>
<path d="M8735 6069 c-4 -6 -5 -12 -2 -15 2 -3 7 2 10 11 7 17 1 20 -8 4z"/>
<path d="M2561 6044 c0 -11 3 -14 6 -6 3 7 2 16 -1 19 -3 4 -6 -2 -5 -13z"/>
<path d="M7069 5899 c-38 -78 -69 -143 -67 -145 2 -2 36 62 76 141 39 80 70
145 67 145 -3 0 -37 -63 -76 -141z"/>
<path d="M7357 6007 c-8 -12 -31 -56 -52 -97 -20 -40 -48 -91 -61 -112 -13
-21 -21 -38 -17 -38 5 0 22 26 39 58 17 31 50 92 73 135 40 73 50 103 18 54z"/>
<path d="M2542 5973 c-6 -27 -13 -66 -16 -88 l-6 -40 14 42 c15 46 30 133 22
133 -2 0 -9 -21 -14 -47z"/>
<path d="M3861 5986 c-18 -14 -40 -35 -49 -48 -9 -13 6 -3 34 21 27 25 51 46
53 48 2 2 2 3 0 3 -3 0 -20 -11 -38 -24z"/>
<path d="M3975 5999 c-3 -4 1 -9 9 -12 8 -3 17 0 19 7 5 13 -21 18 -28 5z"/>
<path d="M9160 5979 c-7 -11 -10 -23 -7 -25 2 -2 9 7 15 21 14 30 7 33 -8 4z"/>
<path d="M7366 5963 c-6 -14 -5 -15 5 -6 7 7 10 15 7 18 -3 3 -9 -2 -12 -12z"/>
<path d="M8662 5935 c-12 -25 -22 -51 -22 -58 0 -6 11 12 25 42 14 30 24 55
22 57 -2 2 -13 -17 -25 -41z"/>
<path d="M4043 5950 c-1 -11 2 -18 7 -15 5 3 11 -3 13 -12 4 -14 5 -14 6 -2 0
8 -5 23 -12 33 -12 16 -13 16 -14 -4z"/>
<path d="M2506 5924 c-4 -14 -5 -28 -3 -31 3 -2 8 8 11 23 4 14 5 28 3 31 -3
2 -8 -8 -11 -23z"/>
<path d="M1761 5924 c0 -11 3 -14 6 -6 3 7 2 16 -1 19 -3 4 -6 -2 -5 -13z"/>
<path d="M4032 5895 c0 -16 2 -22 5 -12 2 9 2 23 0 30 -3 6 -5 -1 -5 -18z"/>
<path d="M1751 5884 c0 -11 3 -14 6 -6 3 7 2 16 -1 19 -3 4 -6 -2 -5 -13z"/>
<path d="M3785 5863 c-9 -20 -18 -48 -22 -61 -4 -18 -8 -21 -14 -10 -6 8 -9
-4 -9 -33 0 -30 6 -51 15 -59 23 -19 124 -21 160 -3 46 24 94 62 106 86 8 14
-5 6 -35 -21 -29 -27 -53 -41 -62 -38 -9 3 -23 6 -32 7 -11 0 -9 4 7 10 14 5
31 7 39 4 15 -5 95 77 98 101 3 21 -14 17 -26 -6 -6 -11 -15 -18 -19 -16 -4 3
-21 -8 -36 -24 -35 -36 -85 -54 -130 -46 -41 8 -50 34 -30 99 17 56 11 62 -10
10z m191 -71 c-17 -16 -18 -16 -5 5 7 12 15 20 18 17 3 -2 -3 -12 -13 -22z"/>
<path d="M1730 5820 c-6 -23 -9 -44 -7 -46 2 -3 9 14 15 38 6 23 9 44 7 46 -2
2 -9 -15 -15 -38z"/>
<path d="M3153 5792 c-12 -37 -21 -68 -19 -69 5 -6 48 115 45 125 -2 5 -14
-20 -26 -56z"/>
<path d="M2481 5834 c0 -11 3 -14 6 -6 3 7 2 16 -1 19 -3 4 -6 -2 -5 -13z"/>
<path d="M2502 5800 c-7 -25 -15 -52 -18 -60 -3 -8 5 2 16 23 12 21 20 48 18
60 -2 16 -7 9 -16 -23z"/>
<path d="M3751 5824 c0 -11 3 -14 6 -6 3 7 2 16 -1 19 -3 4 -6 -2 -5 -13z"/>
<path d="M3801 5824 c0 -11 3 -14 6 -6 3 7 2 16 -1 19 -3 4 -6 -2 -5 -13z"/>
<path d="M8605 5807 c-21 -51 -18 -59 6 -14 11 22 18 41 15 44 -3 4 -13 -10
-21 -30z"/>
<path d="M9041 5775 c-29 -62 -26 -71 5 -12 14 27 23 51 21 53 -2 3 -14 -16
-26 -41z"/>
<path d="M2446 5719 c-15 -50 -25 -93 -23 -95 2 -2 16 37 31 87 15 50 26 93
23 95 -2 2 -16 -37 -31 -87z"/>
<path d="M7045 5799 c-4 -6 -5 -12 -2 -15 2 -3 7 2 10 11 7 17 1 20 -8 4z"/>
<path d="M7021 5743 c-10 -26 -10 -27 4 -9 8 11 15 23 15 28 0 15 -7 8 -19
-19z"/>
<path d="M1706 5734 c-4 -14 -5 -28 -3 -31 3 -2 8 8 11 23 4 14 5 28 3 31 -3
2 -8 -8 -11 -23z"/>
<path d="M6985 5729 c-4 -6 -5 -12 -2 -15 2 -3 7 2 10 11 7 17 1 20 -8 4z"/>
<path d="M7172 5668 c-13 -29 -34 -73 -48 -98 -53 -97 -122 -248 -139 -305
-35 -121 -70 -220 -81 -232 -7 -7 -15 -29 -19 -50 -11 -58 -52 -119 -56 -83
-1 6 -3 15 -4 20 -1 6 -3 13 -4 18 -1 4 -6 -1 -12 -11 -6 -9 -14 -15 -20 -12
-5 4 -9 2 -9 -3 0 -4 -8 -17 -18 -28 -9 -10 -30 -53 -46 -94 -37 -98 -59 -145
-64 -131 -2 6 8 46 22 88 14 43 31 105 37 138 6 33 35 123 66 200 108 276 142
361 172 427 50 109 35 92 -23 -27 -70 -144 -94 -197 -102 -229 -5 -21 -24 -48
-24 -34 0 12 85 242 120 321 23 54 40 101 37 103 -2 3 -12 -14 -21 -38 -10
-24 -30 -72 -46 -108 -15 -36 -54 -132 -85 -215 l-57 -150 -87 -85 c-48 -47
-95 -98 -104 -113 -19 -30 -37 -28 -37 4 0 10 -4 19 -9 19 -5 0 -7 -17 -4 -38
4 -27 1 -42 -11 -51 -9 -7 -16 -18 -16 -23 0 -5 61 51 136 124 74 73 138 135
141 138 3 3 -9 -22 -27 -55 -19 -33 -64 -91 -101 -130 -37 -38 -79 -83 -94
-100 -19 -22 -23 -24 -16 -8 6 12 16 25 21 28 6 3 10 11 10 16 0 18 -61 -22
-70 -46 -14 -37 -30 -40 -20 -4 12 42 3 78 -28 109 -13 14 -31 35 -40 48 -9
14 -18 19 -22 13 -7 -12 -144 98 -153 123 -4 9 -14 16 -23 16 -15 0 -15 -2 -2
-17 8 -10 22 -31 32 -48 16 -28 16 -28 -13 5 -56 63 -124 172 -142 227 -16 47
-16 58 -4 98 17 57 10 58 -15 1 -19 -44 -24 -166 -7 -166 4 0 -3 -19 -15 -42
-12 -24 -23 -50 -24 -58 -3 -35 -5 -40 -17 -40 -18 0 -53 -39 -62 -68 -3 -12
-10 -20 -15 -17 -5 3 -12 0 -16 -6 -5 -8 -3 -9 6 -4 8 5 11 3 9 -4 -3 -7 -8
-12 -12 -11 -5 0 -19 -15 -33 -35 -44 -66 -103 -144 -114 -150 -6 -3 -7 -11
-4 -17 4 -6 3 -8 -3 -5 -6 4 -21 -5 -34 -20 -13 -14 -46 -36 -74 -50 -37 -17
-42 -22 -20 -18 17 3 50 20 75 37 l45 31 -29 -31 c-30 -32 -71 -55 -118 -67
-23 -6 -34 -1 -63 28 -32 32 -35 40 -34 89 0 29 7 71 14 93 13 40 13 39 9 -30
-4 -47 -1 -78 8 -95 25 -46 91 -35 150 27 71 73 113 124 142 170 53 84 152
236 184 279 25 35 29 48 25 85 -7 58 -13 63 -13 9 0 -36 -11 -59 -77 -159
-264 -397 -393 -517 -393 -364 0 80 81 276 190 461 18 28 29 52 26 52 -11 0
-116 -188 -157 -282 -23 -54 -45 -96 -47 -93 -10 10 115 295 129 295 4 0 9 7
12 14 9 23 -19 8 -31 -17 -6 -12 -26 -47 -43 -77 -18 -30 -37 -65 -44 -77 -7
-13 -14 -20 -17 -17 -3 3 -12 -9 -19 -25 -14 -32 -25 -39 -31 -20 -6 18 -68
-40 -68 -64 0 -26 -20 -62 -20 -37 0 37 -31 -40 -44 -110 -3 -14 -3 7 -2 47 2
48 10 86 24 114 12 24 20 44 19 45 -1 2 -34 -34 -72 -78 -145 -168 -187 -209
-254 -240 -72 -34 -97 -32 -136 10 -34 36 -40 61 -40 157 0 56 7 101 23 149
13 37 21 70 19 72 -2 2 -14 -15 -28 -37 -13 -22 -41 -61 -61 -85 -21 -25 -38
-53 -38 -63 0 -10 -7 -24 -15 -31 -13 -11 -15 -7 -16 29 -3 62 -3 66 -13 73
-6 4 -1 29 11 60 35 92 35 94 6 43 -107 -186 -206 -302 -300 -355 -24 -13 -43
-30 -43 -37 0 -11 -9 -12 -37 -7 -83 15 -109 59 -100 167 4 40 11 86 16 102 5
17 12 44 16 60 l6 30 -19 -28 c-10 -15 -22 -24 -25 -20 -4 3 -7 -1 -7 -9 0 -8
-10 -28 -21 -42 -17 -21 -24 -25 -30 -14 -7 10 -9 9 -9 -5 0 -10 -4 -16 -9
-13 -5 4 -12 0 -14 -6 -3 -7 -6 1 -6 18 -1 42 34 157 65 214 l25 45 -27 -30
-26 -30 18 32 c44 75 123 181 171 231 29 30 45 50 35 46 -22 -9 -118 -10 -154
-1 -16 4 -28 13 -28 20 0 7 -9 20 -20 30 -11 9 -20 12 -20 6 0 -5 -4 -8 -9 -5
-5 3 -12 -1 -15 -10 -6 -14 -9 -14 -26 6 -11 13 -20 30 -20 39 0 9 -5 23 -11
31 -8 11 -9 4 -6 -29 4 -28 2 -40 -4 -34 -14 14 -17 55 -9 108 8 50 1 50 -17
2 -10 -27 -12 -29 -12 -9 -1 13 6 37 14 55 15 29 15 30 0 12 -36 -46 -47 -170
-12 -148 6 4 7 1 2 -6 -4 -8 2 -25 14 -42 12 -17 23 -39 24 -49 1 -14 4 -16
14 -8 7 5 10 14 7 19 -3 5 0 9 5 9 6 0 11 -4 11 -9 0 -10 -69 -145 -95 -186
-18 -27 -18 -29 -2 -16 10 8 37 48 59 88 53 97 69 116 91 108 9 -4 14 -11 11
-16 -3 -5 -9 -7 -13 -4 -10 5 -101 -146 -140 -232 -6 -13 -15 -23 -21 -23 -5
0 -10 -6 -10 -14 0 -8 -3 -16 -8 -18 -4 -1 -42 -53 -85 -114 -42 -61 -112
-145 -154 -188 -109 -112 -169 -132 -217 -75 -30 35 -33 73 -11 164 l15 60 -5
-85 c-4 -92 -2 -98 32 -117 53 -30 78 -19 174 80 50 51 96 103 102 114 7 12
37 59 68 105 75 112 77 117 56 99 -9 -7 -17 -11 -17 -8 0 3 27 54 60 113 33
59 59 109 57 110 -2 2 -37 -54 -77 -124 -106 -180 -176 -285 -254 -377 -76
-90 -110 -111 -140 -89 -20 14 -21 34 -12 209 4 70 65 262 123 384 38 81 50
122 46 161 -2 26 0 31 7 20 5 -8 10 -10 10 -4 0 13 -21 34 -35 34 -5 0 -3 -5
5 -10 12 -8 12 -10 -5 -10 -15 0 -17 -2 -6 -9 18 -12 14 -26 -59 -216 -34 -88
-66 -174 -71 -190 -5 -17 -15 -40 -23 -50 -13 -18 -13 -14 -2 32 12 43 12 53
0 57 -8 3 -22 -15 -40 -52 -31 -65 -44 -50 -20 22 25 74 76 283 75 308 -1 13
-9 -8 -18 -47 -17 -67 -62 -214 -121 -395 -16 -47 -31 -94 -34 -105 -3 -11 -3
0 0 25 3 25 30 131 61 235 84 286 84 285 81 360 -3 79 -7 77 92 62 l45 -7 -50
15 c-93 27 -115 15 -115 -64 0 -57 -24 -153 -85 -341 -99 -303 -119 -413 -91
-497 24 -72 60 -103 130 -110 82 -8 161 33 253 131 67 71 177 219 240 321 16
28 60 97 95 155 36 58 75 124 87 147 21 42 22 43 69 41 26 -2 63 1 81 6 l35 8
-33 -38 c-56 -67 -159 -228 -196 -305 -96 -204 -82 -363 38 -433 56 -33 141
-36 201 -6 57 28 229 198 244 241 10 26 20 3 21 -47 1 -65 21 -113 65 -156 42
-42 90 -60 162 -61 101 -1 196 60 324 208 l35 40 3 -45 c4 -79 12 -109 39
-140 91 -108 241 -78 383 79 l69 75 6 -30 c26 -126 147 -198 335 -199 94 0
114 5 210 49 29 13 129 112 224 221 39 44 80 88 93 98 l24 19 -22 -54 c-41
-105 -70 -221 -63 -260 6 -40 43 -78 75 -78 35 0 99 32 118 59 10 14 30 62 46
106 15 44 52 129 81 189 29 60 51 113 47 119 -3 6 -2 7 4 4 5 -3 36 33 69 81
95 140 240 280 251 245 3 -7 11 -9 19 -6 22 8 17 -21 -12 -78 -14 -28 -23 -53
-20 -56 3 -3 20 26 38 63 18 38 39 73 46 77 6 4 12 17 12 28 0 12 -5 19 -12
16 -7 -2 -12 -10 -10 -16 1 -8 -3 -8 -17 1 -15 9 -25 9 -47 -1 -41 -18 -115
-80 -157 -131 -86 -104 -97 -118 -97 -129 0 -7 -5 -9 -10 -6 -6 4 -10 3 -9 -2
3 -19 -2 -34 -10 -29 -13 9 -34 -21 -25 -36 4 -7 3 -10 -1 -5 -12 10 -45 -23
-46 -47 -1 -16 -2 -17 -6 -4 -2 9 20 65 49 125 49 101 62 117 186 244 79 81
151 146 177 159 25 13 43 25 41 27 -8 8 -91 -40 -141 -80 -98 -80 -236 -233
-250 -278 -4 -11 -9 -18 -12 -16 -2 3 6 35 18 71 15 42 26 62 31 54 8 -13 8
-12 12 47 2 22 32 88 112 248 30 60 54 115 52 123 -2 9 -13 -9 -26 -38z
m-2902 -268 c0 -5 -4 -10 -10 -10 -5 0 -10 5 -10 10 0 6 5 10 10 10 6 0 10 -4
10 -10z m-706 -214 c-3 -15 -8 -25 -11 -23 -2 3 -1 17 3 31 3 15 8 25 11 23 2
-3 1 -17 -3 -31z m3229 -1 c-3 -9 -8 -14 -10 -11 -3 3 -2 9 2 15 9 16 15 13 8
-4z m-675 -128 c76 -89 120 -158 134 -211 11 -42 10 -51 -7 -84 -27 -50 -114
-96 -165 -87 -54 10 -78 30 -85 72 -8 49 -24 80 -43 88 -12 5 -12 1 3 -15 10
-11 13 -20 7 -20 -7 0 -12 -14 -12 -30 0 -50 79 -110 146 -110 51 0 132 31
173 66 22 20 41 32 41 27 0 -13 -60 -67 -92 -83 -16 -7 -26 -15 -23 -18 2 -2
26 7 52 20 65 34 105 93 107 159 1 56 10 64 20 18 10 -52 7 -66 -19 -97 -14
-17 -25 -33 -25 -38 0 -4 7 1 15 12 12 16 14 17 15 2 0 -24 -70 -76 -121 -87
-57 -13 -174 -14 -220 -1 -23 7 -55 30 -88 64 -56 60 -60 70 -33 85 15 9 15
10 -5 11 -13 0 -23 5 -23 10 0 6 4 10 8 10 5 0 17 7 28 15 17 13 15 13 -18 3
-48 -14 -55 -7 -30 29 10 15 25 38 33 49 8 12 44 65 81 118 44 63 65 103 61
114 -4 11 1 9 13 -6 11 -13 43 -52 72 -85z m-2078 36 c0 -5 -10 -19 -21 -33
l-20 -25 16 33 c15 30 25 41 25 25z m-521 -52 c-7 -23 -14 -39 -16 -37 -3 2 1
23 8 45 7 23 14 39 16 37 3 -2 -1 -23 -8 -45z m717 -18 c-14 -26 -25 -45 -26
-40 0 12 42 98 47 93 2 -2 -7 -26 -21 -53z m1734 30 c0 -5 -10 -19 -21 -33
l-20 -25 16 33 c15 30 25 41 25 25z m-1772 -108 c-6 -14 -13 -23 -15 -21 -5 5
15 46 22 46 3 0 -1 -11 -7 -25z m1333 -16 c-5 -13 -10 -19 -10 -12 -1 15 10
45 15 40 3 -2 0 -15 -5 -28z m-1894 -1 c-3 -8 -6 -5 -6 6 -1 11 2 17 5 13 3
-3 4 -12 1 -19z m-160 -40 c-3 -8 -6 -5 -6 6 -1 11 2 17 5 13 3 -3 4 -12 1
-19z m3016 -117 c-3 -11 -15 -28 -26 -38 -22 -18 -22 -18 -6 2 9 11 19 28 22
38 9 23 16 22 10 -2z m333 -52 c-9 -19 -15 -29 -16 -22 0 15 22 64 27 60 2 -2
-3 -19 -11 -38z m-2256 -13 c0 -2 -7 -7 -16 -10 -8 -3 -12 -2 -9 4 6 10 25 14
25 6z m1855 -26 c-15 -16 -43 -36 -61 -45 -19 -9 -34 -19 -34 -23 0 -8 -41
-26 -105 -47 -26 -8 -56 -10 -85 -5 l-45 8 45 -1 c25 0 60 3 79 8 36 8 167 85
198 115 10 11 22 19 27 19 6 1 -3 -12 -19 -29z m-1910 -10 c-3 -5 -12 -10 -18
-10 -7 0 -6 4 3 10 19 12 23 12 15 0z m2295 -5 c0 -8 -4 -15 -10 -15 -5 0 -7
7 -4 15 4 8 8 15 10 15 2 0 4 -7 4 -15z m-24 -53 c-4 -11 -13 -23 -21 -25 -10
-5 -10 1 3 23 18 32 27 33 18 2z m-1753 11 c-7 -2 -19 -2 -25 0 -7 3 -2 5 12
5 14 0 19 -2 13 -5z"/>
<path d="M2471 5703 c-1 -6 -4 -20 -7 -30 -5 -17 -5 -17 6 0 6 10 9 23 6 30
-3 9 -5 9 -5 0z"/>
<path d="M8988 5668 c-35 -67 -67 -138 -63 -138 4 0 79 138 88 163 12 32 -2
18 -25 -25z"/>
<path d="M4187 5681 c-8 -9 -17 -23 -21 -31 -4 -8 2 -4 14 10 12 14 26 25 30
25 5 0 11 3 14 6 3 3 -1 6 -9 6 -8 0 -21 -7 -28 -16z"/>
<path d="M6966 5685 c-9 -26 -7 -32 5 -12 6 10 9 21 6 23 -2 3 -7 -2 -11 -11z"/>
<path d="M9189 5683 c-13 -16 -12 -17 4 -4 16 13 21 21 13 21 -2 0 -10 -8 -17
-17z"/>
<path d="M4393 5656 c-1 -17 -16 -58 -33 -91 -30 -60 -12 -47 24 16 21 37 31
95 19 102 -5 3 -9 -9 -10 -27z"/>
<path d="M7289 5643 c-13 -16 -12 -17 4 -4 9 7 17 15 17 17 0 8 -8 3 -21 -13z"/>
<path d="M2451 5643 c-1 -6 -4 -20 -7 -30 -5 -17 -5 -17 6 0 6 10 9 23 6 30
-3 9 -5 9 -5 0z"/>
<path d="M4200 5619 c-6 -11 -10 -25 -8 -30 2 -5 8 4 15 21 13 34 9 40 -7 9z"/>
<path d="M6423 5623 c9 -2 25 -2 35 0 9 3 1 5 -18 5 -19 0 -27 -2 -17 -5z"/>
<path d="M6343 5613 c9 -2 23 -2 30 0 6 3 -1 5 -18 5 -16 0 -22 -2 -12 -5z"/>
<path d="M6246 5590 c-52 -20 -77 -37 -36 -25 14 4 45 16 70 26 59 24 29 23
-34 -1z"/>
<path d="M5383 5593 c9 -2 23 -2 30 0 6 3 -1 5 -18 5 -16 0 -22 -2 -12 -5z"/>
<path d="M5497 5589 c7 -7 15 -10 18 -7 3 3 -2 9 -12 12 -14 6 -15 5 -6 -5z"/>
<path d="M4700 5576 c0 -2 7 -9 15 -16 13 -11 14 -10 9 4 -5 14 -24 23 -24 12z"/>
<path d="M5569 5555 c17 -34 31 -51 31 -39 0 7 -9 22 -21 35 -16 19 -18 20
-10 4z"/>
<path d="M4317 5542 c-23 -25 -26 -65 -6 -70 13 -2 15 3 12 23 -3 14 0 32 7
40 19 22 6 28 -13 7z"/>
<path d="M6671 5543 c7 -12 15 -20 18 -17 3 2 -3 12 -13 22 -17 16 -18 16 -5
-5z"/>
<path d="M8048 5553 c7 -3 16 -2 19 1 4 3 -2 6 -13 5 -11 0 -14 -3 -6 -6z"/>
<path d="M5660 5535 c-7 -8 -9 -15 -6 -15 4 0 14 7 22 15 9 8 11 15 6 15 -5 0
-15 -7 -22 -15z"/>
<path d="M6340 5531 c-43 -24 -92 -71 -98 -97 -13 -58 -13 -113 2 -145 15 -32
16 -32 9 -4 -26 104 11 189 100 231 54 25 121 31 147 13 11 -7 5 -8 -21 -4
-49 9 -114 -10 -147 -43 -16 -15 -19 -20 -7 -11 38 31 64 39 118 39 63 0 82
-15 75 -60 -3 -16 -1 -30 4 -30 4 0 8 18 8 40 0 31 3 38 15 34 19 -8 19 -44 0
-72 -14 -20 -14 -21 0 -16 19 8 35 36 35 64 0 12 -15 34 -32 51 -30 26 -39 29
-103 29 -48 -1 -81 -7 -105 -19z"/>
<path d="M7943 5543 c9 -2 23 -2 30 0 6 3 -1 5 -18 5 -16 0 -22 -2 -12 -5z"/>
<path d="M4483 5503 c-57 -30 -65 -43 -12 -20 32 14 80 46 69 47 -3 0 -28 -12
-57 -27z"/>
<path d="M5479 5526 c-2 -2 -18 -6 -35 -9 -25 -4 -114 -52 -114 -62 0 -2 26 8
58 21 31 13 73 23 92 23 l35 -2 -40 -6 c-23 -4 -59 -16 -80 -28 -22 -11 -64
-34 -93 -49 -124 -67 -260 -232 -328 -398 -39 -96 -50 -181 -31 -251 12 -45
17 -51 51 -63 27 -9 49 -9 75 -2 20 5 39 9 44 10 8 0 15 5 62 46 17 14 24 23
18 19 -7 -3 -13 -1 -13 4 0 6 5 11 11 11 15 0 65 56 120 138 50 73 63 86 53
55 -4 -13 -1 -12 13 5 17 21 39 61 102 187 16 33 45 91 65 129 20 37 36 82 36
98 0 38 -35 114 -56 122 -18 7 -39 8 -45 2z m64 -66 c12 -48 -20 -128 -143
-350 -61 -110 -90 -156 -136 -210 -100 -116 -122 -145 -117 -154 3 -5 1 -6 -6
-2 -6 4 -23 -2 -37 -13 -28 -22 -98 -29 -109 -11 -3 5 -12 7 -19 4 -11 -4 -13
14 -10 98 5 131 7 155 17 164 4 5 5 0 2 -11 -3 -11 1 -7 10 8 9 16 14 35 11
43 -10 27 81 181 155 260 43 47 112 108 85 77 -27 -32 -5 -29 25 3 13 14 58
46 99 70 59 35 84 44 121 44 38 0 48 -4 52 -20z m12 -99 c-8 -17 -17 -31 -19
-31 -5 0 14 71 22 85 15 23 12 -26 -3 -54z m-35 -66 c0 -8 -4 -15 -10 -15 -5
0 -7 7 -4 15 4 8 8 15 10 15 2 0 4 -7 4 -15z m-20 -45 c-6 -11 -13 -20 -16
-20 -2 0 0 9 6 20 6 11 13 20 16 20 2 0 0 -9 -6 -20z m-56 -115 c-4 -8 -8 -15
-10 -15 -2 0 -4 7 -4 15 0 8 4 15 10 15 5 0 7 -7 4 -15z"/>
<path d="M5182 5292 c-77 -88 -181 -247 -169 -259 3 -3 12 10 20 28 21 51 103
168 155 221 25 26 44 50 41 52 -3 3 -24 -16 -47 -42z"/>
<path d="M7865 5520 c-3 -6 1 -7 9 -4 18 7 21 14 7 14 -6 0 -13 -4 -16 -10z"/>
<path d="M4696 5461 c-15 -28 -34 -52 -44 -56 -17 -5 -59 -57 -167 -205 -74
-102 -152 -328 -140 -405 10 -60 16 -70 50 -92 l34 -22 48 24 c33 16 68 47
114 102 84 100 235 310 278 386 18 32 48 78 66 102 43 56 62 91 43 79 -16 -10
-45 -45 -48 -59 -5 -21 -21 -45 -29 -41 -4 3 -18 -16 -32 -42 -22 -43 -40 -68
-64 -96 -6 -6 -24 -33 -40 -61 -34 -60 -121 -178 -187 -257 -115 -135 -220
-116 -193 35 4 23 8 54 9 69 0 14 3 25 5 23 2 -2 22 33 45 78 52 104 141 240
220 337 33 41 53 69 43 61 -9 -7 -17 -9 -17 -3 0 13 25 33 33 26 3 -3 13 8 21
25 23 43 19 52 -5 11 l-20 -35 5 33 c3 17 4 32 2 32 -1 0 -15 -22 -30 -49z
m-53 -103 c-60 -63 -143 -184 -196 -288 -21 -41 -35 -61 -31 -45 10 45 47 113
110 206 81 119 131 173 164 178 2 1 -19 -23 -47 -51z"/>
<path d="M5096 5485 c-11 -8 -15 -15 -9 -15 6 0 16 7 23 15 16 19 11 19 -14 0z"/>
<path d="M5600 5490 c0 -6 7 -10 15 -10 8 0 15 2 15 4 0 2 -7 6 -15 10 -8 3
-15 1 -15 -4z"/>
<path d="M5828 5478 c-27 -41 -80 -150 -70 -144 14 8 95 157 89 162 -2 3 -11
-6 -19 -18z"/>
<path d="M6698 5461 c-4 -24 -11 -48 -17 -54 -7 -7 -8 -2 -4 14 6 20 3 19 -26
-11 -18 -19 -31 -28 -28 -19 4 13 1 15 -14 12 -26 -7 -34 -23 -12 -24 28 -2
-27 -17 -62 -17 -25 -1 -27 1 -10 7 11 5 23 7 28 4 4 -2 7 0 7 6 0 10 -27 8
-67 -4 -28 -9 -29 -21 -3 -35 11 -6 20 -7 20 -2 0 5 12 9 28 10 15 0 43 3 62
6 l35 6 -30 -15 c-16 -8 -24 -14 -17 -15 21 0 50 18 83 52 32 34 43 63 37 99
-2 17 -6 10 -10 -20z"/>
<path d="M8151 5485 c0 -11 4 -27 9 -35 9 -13 10 -13 9 0 0 8 -4 24 -9 35 l-9
20 0 -20z"/>
<path d="M3858 5465 c-3 -14 -1 -28 3 -31 5 -3 9 9 9 25 0 38 -6 40 -12 6z"/>
<path d="M3685 5470 c3 -5 8 -10 11 -10 2 0 4 5 4 10 0 6 -5 10 -11 10 -5 0
-7 -4 -4 -10z"/>
<path d="M6091 5457 c-13 -21 -12 -21 5 -5 10 10 16 20 13 22 -3 3 -11 -5 -18
-17z"/>
<path d="M5255 5450 c-3 -6 1 -7 9 -4 18 7 21 14 7 14 -6 0 -13 -4 -16 -10z"/>
<path d="M7886 5404 c-25 -21 -44 -39 -42 -42 5 -4 96 66 96 74 0 8 -8 3 -54
-32z"/>
<path d="M3851 5404 c0 -11 3 -14 6 -6 3 7 2 16 -1 19 -3 4 -6 -2 -5 -13z"/>
<path d="M4999 5403 c-13 -16 -12 -17 4 -4 9 7 17 15 17 17 0 8 -8 3 -21 -13z"/>
<path d="M6030 5399 c-6 -11 -10 -28 -8 -37 2 -10 8 -1 15 21 12 41 10 48 -7
16z"/>
<path d="M5815 5399 c-4 -6 -5 -12 -2 -15 2 -3 7 2 10 11 7 17 1 20 -8 4z"/>
<path d="M6261 5367 c0 -26 5 -62 13 -81 16 -39 92 -143 135 -187 17 -17 31
-36 31 -43 0 -13 52 -76 64 -76 14 0 -25 58 -99 145 -115 138 -127 157 -135
228 -7 60 -7 61 -9 14z"/>
<path d="M7500 5348 c-7 -18 -33 -73 -57 -121 -46 -93 -55 -120 -25 -74 10 15
22 24 26 20 4 -4 4 1 0 11 -5 13 -4 17 4 12 6 -3 14 -1 18 5 4 8 3 9 -4 5 -21
-13 -13 6 13 30 14 13 25 29 25 36 -1 7 -7 2 -15 -12 -17 -30 -20 -11 -4 24 7
14 17 23 22 19 6 -4 8 0 4 10 -3 10 -3 17 2 17 5 0 11 11 13 25 7 36 -7 31
-22 -7z"/>
<path d="M3825 5350 c3 -5 8 -10 11 -10 2 0 4 5 4 10 0 6 -5 10 -11 10 -5 0
-7 -4 -4 -10z"/>
<path d="M7800 5325 c-13 -14 -21 -27 -18 -30 2 -3 17 9 33 25 16 17 24 30 19
30 -6 0 -21 -11 -34 -25z"/>
<path d="M5770 5325 c-7 -9 -10 -18 -7 -21 3 -3 10 4 17 15 13 25 8 27 -10 6z"/>
<path d="M3807 5313 c-8 -10 -18 -31 -22 -48 -4 -16 -9 -37 -12 -45 -4 -8 -7
-17 -8 -20 -1 -3 -5 -14 -10 -25 -45 -109 -75 -201 -74 -225 0 -8 15 28 34 80
18 52 51 140 74 194 22 55 39 101 37 103 -1 2 -10 -5 -19 -14z"/>
<path d="M7451 5303 c-10 -26 -10 -27 4 -9 8 11 15 23 15 28 0 15 -7 8 -19
-19z"/>
<path d="M7824 5303 c-14 -16 -31 -37 -36 -48 -6 -11 -7 -15 -2 -10 5 6 25 27
43 48 19 20 32 37 27 37 -4 0 -18 -12 -32 -27z"/>
<path d="M5730 5300 c-6 -11 -8 -20 -6 -20 3 0 10 9 16 20 6 11 8 20 6 20 -3
0 -10 -9 -16 -20z"/>
<path d="M3701 5241 c-8 -17 -11 -34 -8 -38 8 -7 29 46 24 60 -2 6 -9 -4 -16
-22z"/>
<path d="M4403 5258 c-15 -20 -25 -38 -20 -38 3 0 12 11 21 25 17 26 16 35 -1
13z"/>
<path d="M8013 5238 c-15 -20 -25 -38 -20 -38 3 0 12 11 21 25 17 26 16 35 -1
13z"/>
<path d="M6009 5203 c-13 -16 -12 -17 4 -4 9 7 17 15 17 17 0 8 -8 3 -21 -13z"/>
<path d="M6922 5155 c-17 -38 -14 -43 8 -15 21 27 25 40 12 40 -5 0 -14 -11
-20 -25z"/>
<path d="M7663 5128 c-6 -7 -16 -24 -23 -38 -10 -22 -9 -22 14 5 23 27 32 45
22 45 -2 0 -8 -6 -13 -12z"/>
<path d="M5484 5098 c-9 -18 -24 -44 -32 -58 -14 -24 -13 -24 3 -5 19 23 58
95 50 95 -2 0 -12 -15 -21 -32z"/>
<path d="M7410 5110 c-6 -11 -8 -20 -6 -20 3 0 10 9 16 20 6 11 8 20 6 20 -3
0 -10 -9 -16 -20z"/>
<path d="M7925 5100 c-3 -5 -2 -10 4 -10 5 0 13 5 16 10 3 6 2 10 -4 10 -5 0
-13 -4 -16 -10z"/>
<path d="M6901 5084 c0 -11 3 -14 6 -6 3 7 2 16 -1 19 -3 4 -6 -2 -5 -13z"/>
<path d="M7375 5049 c-9 -17 -15 -33 -13 -35 3 -2 12 12 21 31 21 43 13 47 -8
4z"/>
<path d="M7177 5001 c-4 -17 -3 -21 5 -13 5 5 8 16 6 23 -3 8 -7 3 -11 -10z"/>
<path d="M4270 4959 c0 -5 5 -7 10 -4 6 3 10 8 10 11 0 2 -4 4 -10 4 -5 0 -10
-5 -10 -11z"/>
<path d="M5339 4943 c-13 -16 -12 -17 4 -4 16 13 21 21 13 21 -2 0 -10 -8 -17
-17z"/>
<path d="M6450 4930 c0 -5 5 -10 11 -10 5 0 7 5 4 10 -3 6 -8 10 -11 10 -2 0
-4 -4 -4 -10z"/>
<path d="M7915 4740 c-10 -11 -13 -20 -8 -20 13 0 38 29 31 35 -3 3 -13 -4
-23 -15z"/>
</g>
</svg>
